{"title":"Wreck It Ralph (HD 1080p).m4v","uid":11223389,"size":4355538230,"categoryP":"video","categoryS":"hd___movies","magnet":"?xt=urn:btih:efe126546e12dafd1d1fa1ea21bd1234cbe0a5a0&amp;dn=Wreck+It+Ralph+%28HD+1080p%29.m4v&amp;tr=udp%3A%2F%2Ftracker.openbittorrent.com%3A80&amp;tr=udp%3A%2F%2Fopen.demonii.com%3A1337&amp;tr=udp%3A%2F%2Ftracker.coppersurfer.tk%3A6969&amp;tr=udp%3A%2F%2Fexodus.desync.com%3A6969","seeders":8,"leechers":1,"uploader":"arctictpb","files":1,"time":1413411315,"description":"General\nComplete name : Wreck It Ralph (HD 1080p).m4v\nFormat : MPEG-4\nFormat profile : Base Media / Version 2\nCodec ID : mp42\nFile size : 4.06 GiB\nDuration : 1h 41mn\nOverall bit rate mode : Variable\nOverall bit rate : 5 737 Kbps\nMovie name : Wreck-It Ralph\nPerformer : John C. Reilly, Jane Lynch, Sarah Silverman, Jack McBrayer, Jamie Elman, Adam Carolla, Alan Tudyk, Mindy Kaling, Joe Lo Truglio, Ed O'Neill, Dennis Haysbert, Edie McClurg, Raymond S. Persi, Jess Harnell, Rachael Harris, Skylar Astin\nGenre : Animation, Comedy, Family\nContentType : Short Film\nDescription : Wreck-It Ralph is the 9-foot-tall, 643-pound villain of an arcade video game named Fix-It Felix Jr., in which the game's titular hero fixes buildings that Ralph destroys. Wanting to prove he can be a good guy and not just a villain, Ralph escapes his game and lands in Hero's Duty, a first-person shooter where he helps the game's hero battle against alien invaders. He later enters Sugar Rush, a kart racing game set on tracks made of candies, cookies and other sweets. There, Ralph meets Vanellope von Schweetz who has learned that her game is faced with a dire threat that could affect the entire arcade, and one that Ralph may have inadvertently started.\nRecorded date : 2012-11-02\nEncoded date : UTC 2013-04-09 18:15:40\nTagged date : UTC 2013-04-10 07:12:13\nWriting application : HandBrake 5385svn 2013040801\nCover : Yes\nRating : None\nLongDescription : Wreck-It Ralph is the 9-foot-tall, 643-pound villain of an arcade video game named Fix-It Felix Jr., in which the game's titular hero fixes buildings that Ralph destroys. Wanting to prove he can be a good guy and not just a villain, Ralph escapes his game and lands in Hero's Duty, a first-person shooter where he helps the game's hero battle against alien invaders. He later enters Sugar Rush, a kart racing game set on tracks made of candies, cookies and other sweets. There, Ralph meets Vanellope von Schweetz who has learned that her game is faced with a dire threat that could affect the entire arcade, and one that Ralph may have inadvertently started.\n\nVideo #1\nID : 1\nFormat : AVC\nFormat/Info : Advanced Video Codec\nFormat profile : &lt;a class=&quot;__cf_email__&quot; href=&quot;/cdn-cgi/l/email-protection&quot; data-cfemail=&quot;672f0e000f272b534957&quot;&gt;[email&amp;#160;protected]&lt;/a&gt;&lt;script cf-hash='f9e31' type=&quot;text/javascript&quot;&gt;\n/* &lt;![CDATA[ */!function(){try{var t=&quot;currentScript&quot;in document?document.currentScript:function(){for(var t=document.getElementsByTagName(&quot;script&quot;),e=t.length;e--;)if(t[e].getAttribute(&quot;cf-hash&quot;))return t[e]}();if(t&amp;&amp;t.previousSibling){var e,r,n,i,c=t.previousSibling,a=c.getAttribute(&quot;data-cfemail&quot;);if(a){for(e=&quot;&quot;,r=parseInt(a.substr(0,2),16),n=2;a.length-n;n+=2)i=parseInt(a.substr(n,2),16)^r,e+=String.fromCharCode(i);e=document.createTextNode(e),c.parentNode.replaceChild(e,c)}}}catch(u){}}();/* ]]&gt; */&lt;/script&gt;\nFormat settings, CABAC : Yes\nFormat settings, ReFrames : 4 frames\nCodec ID : avc1\nCodec ID/Info : Advanced Video Coding\nDuration : 1h 41mn\nBit rate : 4 759 Kbps\nWidth : 1 920 pixels\nHeight : 804 pixels\nDisplay aspect ratio : 2.40:1\nFrame rate mode : Variable\nFrame rate : 23.976 fps\nMinimum frame rate : 17.026 fps\nMaximum frame rate : 29.990 fps\nColor space : YUV\nChroma subsampling : 4:2:0\nBit depth : 8 bits\nScan type : Progressive\nBits/(Pixel*Frame) : 0.129\nStream size : 3.36 GiB (83%)\nWriting library : x264 core 130\nEncoding settings : cabac=1 / ref=4 / deblock=1:0:0 / analyse=0x3:0x133 / me=umh / subme=10 / psy=1 / psy_rd=1.00:0.15 / mixed_ref=1 / me_range=32 / chroma_me=1 / trellis=2 / 8x8dct=1 / cqm=0 / deadzone=21,11 / fast_pskip=1 / chroma_qp_offset=-3 / threads=12 / lookahead_threads=1 / sliced_threads=0 / nr=0 / decimate=1 / interlaced=0 / bluray_compat=0 / constrained_intra=0 / bframes=4 / b_pyramid=2 / b_adapt=2 / b_bias=0 / direct=3 / weightb=1 / open_gop=0 / weightp=2 / keyint=300 / keyint_min=30 / scenecut=40 / intra_refresh=0 / rc_lookahead=60 / rc=crf / mbtree=1 / crf=19.0 / qcomp=0.60 / qpmin=0 / qpmax=69 / qpstep=4 / vbv_maxrate=25000 / vbv_bufsize=31250 / crf_max=0.0 / nal_hrd=none / ip_ratio=1.40 / aq=1:1.00\nLanguage : English\nEncoded date : UTC 2013-04-09 18:15:40\nTagged date : UTC 2013-04-09 22:10:14\nColor primaries : BT.709\nTransfer characteristics : BT.709\nMatrix coefficients : BT.709\n\nVideo #2\nID : 5\nFormat : JPEG\nCodec ID : jpeg\nDuration : 1h 41mn\nSource duration : 1h 41mn\nBit rate mode : Variable\nBit rate : 1 126 bps\nWidth : 640 pixels\nHeight : 268 pixels\nDisplay aspect ratio : 2.40:1\nFrame rate mode : Variable\nFrame rate : 0.003 fps\nMinimum frame rate : 0.002 fps\nMaximum frame rate : 0.007 fps\nColor space : YUV\nChroma subsampling : 4:2:0\nBit depth : 8 bits\nCompression mode : Lossy\nBits/(Pixel*Frame) : 2.188\nStream size : 733 KiB (0%)\nSource stream size : 733 KiB (0%)\nLanguage : English\nEncoded date : UTC 2013-04-10 07:12:12\nTagged date : UTC 2013-04-10 07:12:13\n\nAudio #1\nID : 2\nFormat : AAC\nFormat/Info : Advanced Audio Codec\nFormat profile : LC\nCodec ID : 40\nDuration : 1h 41mn\nBit rate mode : Variable\nBit rate : 329 Kbps\nMaximum bit rate : 493 Kbps\nChannel(s) : 2 channels\nChannel positions : Front: L R\nSampling rate : 48.0 KHz\nCompression mode : Lossy\nStream size : 238 MiB (6%)\nLanguage : English\nEncoded date : UTC 2013-04-09 18:15:40\nTagged date : UTC 2013-04-09 22:10:14\n\nAudio #2\nID : 3\nFormat : AC-3\nFormat/Info : Audio Coding 3\nMode extension : CM (complete main)\nFormat settings, Endianness : Big\nCodec ID : ac-3\nDuration : 1h 41mn\nBit rate mode : Constant\nBit rate : 640 Kbps\nChannel(s) : 6 channels\nChannel positions : Front: L C R, Side: L R, LFE\nSampling rate : 48.0 KHz\nBit depth : 16 bits\nCompression mode : Lossy\nStream size : 463 MiB (11%)\nLanguage : English\nEncoded date : UTC 2013-04-09 18:15:40\nTagged date : UTC 2013-04-09 22:10:14","torrent":{"xt":"urn:btih:efe126546e12dafd1d1fa1ea21bd1234cbe0a5a0","amp;dn":"Wreck+It+Ralph+%28HD+1080p%29.m4v","amp;tr":["udp%3A%2F%2Ftracker.openbittorrent.com%3A80","udp%3A%2F%2Fopen.demonii.com%3A1337","udp%3A%2F%2Ftracker.coppersurfer.tk%3A6969","udp%3A%2F%2Fexodus.desync.com%3A6969"],"infoHash":"efe126546e12dafd1d1fa1ea21bd1234cbe0a5a0","infoHashBuffer":{"type":"Buffer","data":[239,225,38,84,110,18,218,253,29,31,161,234,33,189,18,52,203,224,165,160]},"announce":[],"urlList":[]}}